#N canvas 722 91 450 496 10;
#X obj 173 334 list prepend set;
#X obj 173 442 unpack f f;
#X obj 173 464 swap;
#X obj 173 401 list trim;
#X obj 173 422 route set;
#X obj 173 12 r \$1-loop;
#X obj 173 356 s seq_\$1-edit;
#X obj 173 380 r seq_\$1-edit;
#X obj 173 485 tabwrite \$1-loop;
#X obj 173 63 allow-list 2;
#X obj 287 63 allow-list 17;
#X obj 173 33 t a a;
#X obj 287 125 list split 1;
#X obj 287 217 t b f;
#X obj 287 238 f;
#X obj 316 238 + 1;
#X msg 314 104 0;
#X obj 287 280 pack f f;
#X obj 321 147 list split 1;
#X obj 403 147 t l;
#X obj 287 84 t a b;
#X obj 287 259 expr 15 - $f1;
#X connect 0 0 6 0;
#X connect 1 0 2 0;
#X connect 1 1 2 1;
#X connect 2 0 8 0;
#X connect 2 1 8 1;
#X connect 3 0 4 0;
#X connect 4 1 1 0;
#X connect 5 0 11 0;
#X connect 7 0 3 0;
#X connect 9 0 0 0;
#X connect 10 0 20 0;
#X connect 11 0 9 0;
#X connect 11 1 10 0;
#X connect 12 1 18 0;
#X connect 13 0 14 0;
#X connect 13 1 17 1;
#X connect 14 0 15 0;
#X connect 14 0 21 0;
#X connect 15 0 14 1;
#X connect 16 0 14 1;
#X connect 17 0 0 0;
#X connect 18 0 13 0;
#X connect 18 1 19 0;
#X connect 19 0 18 0;
#X connect 20 0 12 0;
#X connect 20 1 16 0;
#X connect 21 0 17 0;
