#N canvas 0 0 450 300 10;
#X obj 12 12 inlet~;
#X obj 128 11 inlet~;
#X obj 211 10 r \$1;
#X obj 14 271 outlet~;
#X obj 165 274 outlet~;
#X obj 52 114 *~;
#X obj 314 124 *~;
#X obj 334 88 expr 1 - $f1;
#X connect 0 0 5 0;
#X connect 1 0 6 0;
#X connect 2 0 7 0;
#X connect 2 0 5 1;
#X connect 5 0 3 0;
#X connect 6 0 4 0;
#X connect 7 0 6 1;
