#N canvas 0 0 304 300 10;
#X obj 11 252 outlet~;
#X obj 11 13 r choose-new-samples;
#X obj 11 59 random;
#X obj 11 79 + 1;
#X msg 11 125 set \$2-\$1;
#X obj 48 36 r \$1-samples;
#X obj 62 60 loadbang;
#X obj 62 80 symbol \$1;
#X obj 11 102 pack f s;
#X obj 30 153 r \$1-shot;
#X obj 30 196 vline~;
#X msg 30 175 0 \, 44100 1000;
#X obj 149 13 seeder;
#X obj 11 229 tabread~;
#X obj 133 35 r choose-\$1;
#X obj 68 102 s set-\$1;
#X connect 1 0 2 0;
#X connect 2 0 3 0;
#X connect 3 0 8 0;
#X connect 3 0 15 0;
#X connect 4 0 13 0;
#X connect 5 0 2 1;
#X connect 6 0 7 0;
#X connect 7 0 8 1;
#X connect 8 0 4 0;
#X connect 9 0 11 0;
#X connect 10 0 13 0;
#X connect 11 0 10 0;
#X connect 12 0 2 0;
#X connect 13 0 0 0;
#X connect 14 0 8 0;
