#N canvas 301 112 450 300 10;
#X obj 12 13 r setseed;
#X msg 12 106 seed \$1;
#X obj 12 84 * 17;
#X obj 33 40 loadbang;
#X obj 33 63 random 100;
#X obj 12 127 outlet;
#X connect 0 0 2 0;
#X connect 1 0 5 0;
#X connect 2 0 1 0;
#X connect 3 0 4 0;
#X connect 4 0 2 1;
