#N canvas 650 7 552 682 10;
#X text 425 7 square wave acid;
#X text 155 281 <- note to use;
#X obj 9 286 tabread notes;
#X obj 10 621 vcf~ 4;
#X msg 102 553 1 3 \, 0 \$1 3;
#X obj 281 507 vline~;
#X msg 281 484 1 3 \, 0 \$1 3;
#X obj 102 577 vline~;
#X text 477 330 freq dive;
#X obj 102 416 t b b;
#X obj 9 355 +;
#X obj 9 650 *~;
#X obj 102 530 f;
#X obj 9 554 mtof;
#X obj 9 579 \$1;
#X obj 232 125 switch~;
#X obj 9 12 r tick;
#X obj 9 33 mod 16;
#X obj 118 12 inlet;
#X obj 118 33 unpack f f;
#X obj 175 54 == \$2;
#X obj 9 376 t f f;
#X obj 415 394 mtof;
#X obj 282 569 *~ 0;
#X obj 281 528 *~;
#X obj 281 549 *~;
#X obj 249 12 inlet;
#X obj 249 33 unpack f f;
#X obj 307 54 == \$2;
#X obj 234 80 ||;
#X obj 118 107 spigot;
#X obj 279 89 spigot;
#X obj 9 671 *~ 0.5;
#X obj 281 465 f;
#X obj 9 195 sel 0;
#X obj 36 215 - 1;
#X obj 9 174 tabread notelist-0;
#X msg 119 132 set notelist-\$1;
#X obj 36 108 spigot 0;
#X obj 9 54 t f f;
#X obj 36 129 outlet;
#X obj 36 236 t f f;
#X obj 36 257 mod 4;
#X obj 100 258 / 4;
#X obj 100 279 int;
#X obj 100 300 * 12;
#X obj 100 321 + 24;
#X obj 209 209 tabread noteparam-0;
#X msg 196 165 set noteparam-\$1;
#X obj 229 362 * 500;
#X obj 401 349 * 128;
#X obj 393 688 outlet~;
#X connect 2 0 10 0;
#X connect 3 0 11 0;
#X connect 4 0 7 0;
#X connect 5 0 24 0;
#X connect 5 0 24 1;
#X connect 6 0 5 0;
#X connect 7 0 11 1;
#X connect 9 0 12 0;
#X connect 9 1 33 0;
#X connect 10 0 21 0;
#X connect 11 0 32 0;
#X connect 12 0 4 0;
#X connect 13 0 14 0;
#X connect 14 0 3 0;
#X connect 16 0 17 0;
#X connect 17 0 39 0;
#X connect 18 0 19 0;
#X connect 19 0 30 0;
#X connect 19 1 20 0;
#X connect 20 0 29 0;
#X connect 20 0 30 1;
#X connect 21 0 13 0;
#X connect 21 1 9 0;
#X connect 22 0 23 1;
#X connect 23 0 3 1;
#X connect 24 0 25 0;
#X connect 24 0 25 1;
#X connect 25 0 23 0;
#X connect 26 0 27 0;
#X connect 27 0 31 0;
#X connect 27 1 28 0;
#X connect 28 0 29 1;
#X connect 28 0 31 1;
#X connect 29 0 15 0;
#X connect 29 0 38 1;
#X connect 30 0 37 0;
#X connect 30 0 48 0;
#X connect 31 0 37 0;
#X connect 31 0 48 0;
#X connect 32 0 51 0;
#X connect 33 0 6 0;
#X connect 34 1 35 0;
#X connect 35 0 41 0;
#X connect 36 0 34 0;
#X connect 37 0 36 0;
#X connect 38 0 40 0;
#X connect 39 0 36 0;
#X connect 39 0 47 0;
#X connect 39 1 38 0;
#X connect 41 0 42 0;
#X connect 41 1 43 0;
#X connect 42 0 2 0;
#X connect 43 0 44 0;
#X connect 44 0 45 0;
#X connect 45 0 46 0;
#X connect 46 0 10 1;
#X connect 47 0 49 0;
#X connect 47 0 50 0;
#X connect 48 0 47 0;
#X connect 49 0 33 1;
#X connect 49 0 12 1;
#X connect 50 0 22 0;
