#N canvas 650 7 370 682 10;
#X text 176 308 <- note to use;
#X msg 102 553 1 3 \, 0 \$1 3;
#X obj 102 577 vline~;
#X obj 9 650 *~;
#X obj 102 530 f;
#X obj 9 554 mtof;
#X obj 9 579 \$1;
#X obj 232 125 switch~;
#X obj 9 12 r tick;
#X obj 9 33 mod 16;
#X obj 118 12 inlet;
#X obj 118 33 unpack f f;
#X obj 175 54 == \$2;
#X obj 9 406 t f f;
#X obj 249 12 inlet;
#X obj 249 33 unpack f f;
#X obj 307 54 == \$2;
#X obj 234 80 ||;
#X obj 118 107 spigot;
#X obj 279 89 spigot;
#X msg 102 437 bang;
#X obj 9 671 *~ 0.25;
#X msg 119 132 set notelist-\$1;
#X obj 36 108 spigot 0;
#X obj 9 54 t f f;
#X obj 36 129 outlet;
#X obj 9 319 tabread notes;
#X obj 9 378 +;
#X obj 9 228 sel 0;
#X obj 36 248 - 1;
#X obj 9 207 tabread notelist-0;
#X obj 36 269 t f f;
#X obj 36 290 mod 4;
#X obj 100 291 / 4;
#X obj 100 312 int;
#X obj 100 333 * 12;
#X obj 100 354 + 24;
#X obj 169 205 tabread noteparam-0;
#X msg 156 161 set noteparam-\$1;
#X text 157 502 notelength;
#X obj 117 482 * 750;
#X obj 219 693 outlet~;
#X connect 1 0 2 0;
#X connect 2 0 3 1;
#X connect 3 0 21 0;
#X connect 4 0 1 0;
#X connect 5 0 6 0;
#X connect 6 0 3 0;
#X connect 8 0 9 0;
#X connect 9 0 24 0;
#X connect 10 0 11 0;
#X connect 11 0 18 0;
#X connect 11 1 12 0;
#X connect 12 0 17 0;
#X connect 12 0 18 1;
#X connect 13 0 5 0;
#X connect 13 1 20 0;
#X connect 14 0 15 0;
#X connect 15 0 19 0;
#X connect 15 1 16 0;
#X connect 16 0 17 1;
#X connect 16 0 19 1;
#X connect 17 0 7 0;
#X connect 17 0 23 1;
#X connect 18 0 22 0;
#X connect 18 0 38 0;
#X connect 19 0 22 0;
#X connect 19 0 38 0;
#X connect 20 0 4 0;
#X connect 21 0 41 0;
#X connect 22 0 30 0;
#X connect 23 0 25 0;
#X connect 24 0 30 0;
#X connect 24 0 37 0;
#X connect 24 1 23 0;
#X connect 26 0 27 0;
#X connect 27 0 13 0;
#X connect 28 1 29 0;
#X connect 29 0 31 0;
#X connect 30 0 28 0;
#X connect 31 0 32 0;
#X connect 31 1 33 0;
#X connect 32 0 26 0;
#X connect 33 0 34 0;
#X connect 34 0 35 0;
#X connect 35 0 36 0;
#X connect 36 0 27 1;
#X connect 37 0 40 0;
#X connect 38 0 37 0;
#X connect 40 0 4 1;
